<svg width="360" height="120" viewBox="0 0 360 120" fill="none" xmlns="http://www.w3.org/2000/svg">
  <defs>
    <linearGradient id="sky" x1="0" y1="0" x2="0" y2="120" gradientUnits="userSpaceOnUse">
      <stop stop-color="#dfe8ed"/>
      <stop offset="1" stop-color="#c9d6de"/>
    </linearGradient>
    <linearGradient id="peakLight" x1="0" y1="0" x2="1" y2="1">
      <stop stop-color="#2f8d71"/>
      <stop offset="1" stop-color="#1f6955"/>
    </linearGradient>
    <linearGradient id="peakBlue" x1="0" y1="0" x2="1" y2="1">
      <stop stop-color="#3c7ead"/>
      <stop offset="1" stop-color="#2a5f86"/>
    </linearGradient>
  </defs>
  <rect width="360" height="120" rx="14" fill="url(#sky)" fill-opacity="0"/>
  <!-- Sun -->
  <circle cx="280" cy="34" r="16" fill="#d68827"/>
  <!-- Peaks -->
  <path d="M38 92L78 22L118 92H98L78 56L58 92H38Z" fill="url(#peakLight)"/>
  <path d="M98 92L138 30L178 92H158L138 58L118 92H98Z" fill="url(#peakBlue)"/>
  <path d="M158 92L198 40L238 92H218L198 64L178 92H158Z" fill="#c46a21"/>
  <!-- Trail line -->
  <!-- Gentle trail arch -->
  <path d="M60 92C95 72 135 72 188 92" stroke="#6b7f8a" stroke-width="3" stroke-linecap="round" opacity="0.6"/>
  <!-- Brand text -->
  <text x="32" y="110" fill="#111" font-family="Inter, 'Segoe UI', sans-serif" font-size="22" font-weight="800" letter-spacing="0.4">AdventureMeets</text>
</svg>
