<svg width="20" height="20" viewBox="0 0 20 20" fill="none" xmlns="http://www.w3.org/2000/svg">
<path d="M20 10C20 4.477 15.523 0 10 0C4.477 0 0 4.477 0 10C0 14.991 3.657 19.128 8.438 19.878V12.89H5.898V10H8.438V7.797C8.438 5.29 9.93 3.906 12.215 3.906C13.309 3.906 14.453 4.102 14.453 4.102V6.563H13.186C11.938 6.563 11.563 7.333 11.563 8.125V10H14.336L13.891 12.89H11.563V19.878C16.343 19.128 20 14.991 20 10Z" fill="#1877F2"/>
<path d="M13.891 12.89L14.336 10H11.563V8.125C11.563 7.333 11.938 6.563 13.186 6.563H14.453V4.102C14.453 4.102 13.309 3.906 12.215 3.906C9.93 3.906 8.438 5.29 8.438 7.797V10H5.898V12.89H8.438V19.878C8.95579 19.959 9.4771 20 10 20C10.5229 20 11.0442 19.959 11.562 19.878V12.89H13.891Z" fill="white"/>
</svg>
