<svg width="20" height="20" viewBox="0 0 20 20" fill="none" xmlns="http://www.w3.org/2000/svg">
<path d="M19.6 10.23C19.6 9.52 19.54 8.84 19.43 8.18H10V12.05H15.46C15.22 13.32 14.52 14.37 13.44 15.08V17.59H16.68C18.59 15.83 19.6 13.27 19.6 10.23Z" fill="#4285F4"/>
<path d="M10 20C12.7 20 14.95 19.1 16.68 17.59L13.44 15.08C12.5 15.71 11.34 16.09 10 16.09C7.39 16.09 5.17 14.32 4.38 11.91H1.04V14.5C2.76 17.78 6.1 20 10 20Z" fill="#34A853"/>
<path d="M4.38 11.91C4.18 11.28 4.07 10.62 4.07 9.93C4.07 9.24 4.19 8.59 4.38 7.96V5.37H1.04C0.38 6.71 0 8.27 0 9.93C0 11.59 0.38 13.15 1.04 14.5L4.38 11.91Z" fill="#FBBC05"/>
<path d="M10 3.91C11.48 3.91 12.8 4.42 13.84 5.41L16.75 2.5C14.95 0.82 12.7 0 10 0C6.1 0 2.76 2.22 1.04 5.5L4.38 8.09C5.17 5.68 7.39 3.91 10 3.91Z" fill="#EA4335"/>
</svg>
